{
  "accessors": [
    {
      "bufferView": 1,
      "componentType": 5126,
      "count": 15818,
      "max": [
        5.822951793670654,
        0.9889839887619019,
        -12.728721618652344
      ],
      "min": [
        3.4819350242614746,
        -0.6370800137519836,
        -16.98923683166504
      ],
      "type": "VEC3"
    },
    {
      "bufferView": 1,
      "byteOffset": 189816,
      "componentType": 5126,
      "count": 15818,
      "max": [
        0.9998419880867004,
        0.9999600648880005,
        0.9984367489814758
      ],
      "min": [
        -0.9999595880508423,
        -0.9999592304229736,
        -0.9997531771659851
      ],
      "type": "VEC3"
    },
    {
      "bufferView": 0,
      "componentType": 5125,
      "count": 92388,
      "type": "SCALAR"
    }
  ],
  "asset": {
    "extras": {
      "author": "rushivamshi (https://sketchfab.com/rushivamshi)",
      "license": "CC-BY-4.0 (http://creativecommons.org/licenses/by/4.0/)",
      "source": "https://sketchfab.com/3d-models/feet-anatomy-079ee0e5118a4cb295438a31ce246b0d",
      "title": "Feet Anatomy"
    },
    "generator": "Sketchfab-12.65.0",
    "version": "2.0"
  },
  "bufferViews": [
    {
      "buffer": 0,
      "byteLength": 369552,
      "name": "floatBufferViews",
      "target": 34963
    },
    {
      "buffer": 0,
      "byteLength": 379632,
      "byteOffset": 369552,
      "byteStride": 12,
      "name": "floatBufferViews",
      "target": 34962
    }
  ],
  "buffers": [
    {
      "byteLength": 749184,
      "uri": "scene.bin"
    }
  ],
  "materials": [
    {
      "doubleSided": true,
      "name": "Default_OBJ",
      "pbrMetallicRoughness": {
        "metallicFactor": 0.0,
        "roughnessFactor": 0.6
      }
    }
  ],
  "meshes": [
    {
      "name": "Object_0",
      "primitives": [
        {
          "attributes": {
            "NORMAL": 1,
            "POSITION": 0
          },
          "indices": 2,
          "material": 0,
          "mode": 4
        }
      ]
    }
  ],
  "nodes": [
    {
      "children": [
        1
      ],
      "matrix": [
        1.0,
        0.0,
        0.0,
        0.0,
        0.0,
        2.220446049250313e-16,
        -1.0,
        0.0,
        0.0,
        1.0,
        2.220446049250313e-16,
        0.0,
        0.0,
        0.0,
        0.0,
        1.0
      ],
      "name": "Sketchfab_model"
    },
    {
      "children": [
        2
      ],
      "name": "untitled.obj.cleaner.materialmerger.gles"
    },
    {
      "mesh": 0,
      "name": "Object_2"
    }
  ],
  "scene": 0,
  "scenes": [
    {
      "name": "Sketchfab_Scene",
      "nodes": [
        0
      ]
    }
  ]
}
