{
  "accessors": [
    {
      "bufferView": 1,
      "componentType": 5126,
      "count": 65532,
      "max": [
        2.518984079360962,
        1.6509859561920166,
        7.741353988647461
      ],
      "min": [
        -2.52435302734375,
        -2.112837076187134,
        -7.2493672370910645
      ],
      "type": "VEC3"
    },
    {
      "bufferView": 1,
      "byteOffset": 786384,
      "componentType": 5126,
      "count": 65532,
      "max": [
        0.9999685287475586,
        0.9999697208404541,
        0.9999997615814209
      ],
      "min": [
        -0.9999761581420898,
        -0.9998688697814941,
        -0.9993898868560791
      ],
      "type": "VEC3"
    },
    {
      "bufferView": 0,
      "componentType": 5125,
      "count": 65550,
      "type": "SCALAR"
    },
    {
      "bufferView": 1,
      "byteOffset": 1572768,
      "componentType": 5126,
      "count": 65534,
      "max": [
        2.518984079360962,
        1.6509859561920166,
        7.741353988647461
      ],
      "min": [
        -2.52435302734375,
        -2.112837076187134,
        -7.2493672370910645
      ],
      "type": "VEC3"
    },
    {
      "bufferView": 1,
      "byteOffset": 2359176,
      "componentType": 5126,
      "count": 65534,
      "max": [
        0.999958872795105,
        0.9999220371246338,
        0.999990701675415
      ],
      "min": [
        -0.9999607801437378,
        -0.9998905658721924,
        -0.9999498128890991
      ],
      "type": "VEC3"
    },
    {
      "bufferView": 0,
      "byteOffset": 262200,
      "componentType": 5125,
      "count": 65553,
      "type": "SCALAR"
    },
    {
      "bufferView": 1,
      "byteOffset": 3145584,
      "componentType": 5126,
      "count": 18879,
      "max": [
        2.5189690589904785,
        1.6483850479125977,
        7.741353988647461
      ],
      "min": [
        -2.524275064468384,
        -2.112837076187134,
        -7.2493672370910645
      ],
      "type": "VEC3"
    },
    {
      "bufferView": 1,
      "byteOffset": 3372132,
      "componentType": 5126,
      "count": 18879,
      "max": [
        0.9998247027397156,
        0.9998862743377686,
        0.9999898672103882
      ],
      "min": [
        -0.9999165534973145,
        -0.9998474717140198,
        -0.9996504187583923
      ],
      "type": "VEC3"
    },
    {
      "bufferView": 0,
      "byteOffset": 524412,
      "componentType": 5125,
      "count": 18885,
      "type": "SCALAR"
    }
  ],
  "asset": {
    "extras": {
      "author": "rushivamshi (https://sketchfab.com/rushivamshi)",
      "license": "CC-BY-4.0 (http://creativecommons.org/licenses/by/4.0/)",
      "source": "https://sketchfab.com/3d-models/legs-365fdf20b9a5485981b9629b12e46bce",
      "title": "Legs"
    },
    "generator": "Sketchfab-12.65.0",
    "version": "2.0"
  },
  "bufferViews": [
    {
      "buffer": 0,
      "byteLength": 599952,
      "name": "floatBufferViews",
      "target": 34963
    },
    {
      "buffer": 0,
      "byteLength": 3598680,
      "byteOffset": 599952,
      "byteStride": 12,
      "name": "floatBufferViews",
      "target": 34962
    }
  ],
  "buffers": [
    {
      "byteLength": 4198632,
      "uri": "scene.bin"
    }
  ],
  "materials": [
    {
      "doubleSided": true,
      "name": "Default_OBJ.002",
      "pbrMetallicRoughness": {
        "metallicFactor": 0.0,
        "roughnessFactor": 0.6
      }
    }
  ],
  "meshes": [
    {
      "name": "Object_0",
      "primitives": [
        {
          "attributes": {
            "NORMAL": 1,
            "POSITION": 0
          },
          "indices": 2,
          "material": 0,
          "mode": 4
        }
      ]
    },
    {
      "name": "Object_1",
      "primitives": [
        {
          "attributes": {
            "NORMAL": 4,
            "POSITION": 3
          },
          "indices": 5,
          "material": 0,
          "mode": 4
        }
      ]
    },
    {
      "name": "Object_2",
      "primitives": [
        {
          "attributes": {
            "NORMAL": 7,
            "POSITION": 6
          },
          "indices": 8,
          "material": 0,
          "mode": 4
        }
      ]
    }
  ],
  "nodes": [
    {
      "children": [
        1
      ],
      "matrix": [
        1.0,
        0.0,
        0.0,
        0.0,
        0.0,
        2.220446049250313e-16,
        -1.0,
        0.0,
        0.0,
        1.0,
        2.220446049250313e-16,
        0.0,
        0.0,
        0.0,
        0.0,
        1.0
      ],
      "name": "Sketchfab_model"
    },
    {
      "children": [
        2,
        3,
        4
      ],
      "name": "untitled.obj.cleaner.materialmerger.gles"
    },
    {
      "mesh": 0,
      "name": "Object_2"
    },
    {
      "mesh": 1,
      "name": "Object_3"
    },
    {
      "mesh": 2,
      "name": "Object_4"
    }
  ],
  "scene": 0,
  "scenes": [
    {
      "name": "Sketchfab_Scene",
      "nodes": [
        0
      ]
    }
  ]
}
